<svg width="33" height="33" viewBox="0 0 33 33" fill="none" xmlns="http://www.w3.org/2000/svg">
<g clip-path="url(#clip0_26_17)">
<rect width="33" height="33" fill="white"/>
<path d="M27.5 24.75H5.5V26.125H27.5V24.75Z" fill="black" fill-opacity="0.3"/>
<path d="M16.5001 6.875C11.8388 6.875 6.88881 7.98875 5.74756 11H27.2801C27.1013 10.4913 26.7988 10.0375 26.3726 9.61125C24.6538 7.87875 21.0513 6.875 16.5001 6.875Z" fill="black" fill-opacity="0.3"/>
<path d="M2.75 26.125C2.75 27.6375 3.9875 28.875 5.5 28.875H27.5C29.0125 28.875 30.25 27.6375 30.25 26.125V22H2.75V26.125ZM5.5 24.75H27.5V26.125H5.5V24.75Z" fill="black"/>
<path d="M25.6575 15.8125C22.9763 15.8125 22.7838 17.1875 21.0788 17.1875C19.4425 17.1875 19.1263 15.8125 16.5 15.8125C13.8188 15.8125 13.6263 17.1875 11.9213 17.1875C10.285 17.1875 9.96879 15.8125 7.34254 15.8125C4.66129 15.8125 4.46879 17.1875 2.76379 17.1875V19.9375C5.37629 19.9375 5.74754 18.5625 7.37004 18.5625C9.00629 18.5625 9.32254 19.9375 11.9488 19.9375C14.63 19.9375 14.8225 18.5625 16.5275 18.5625C18.1638 18.5625 18.48 19.9375 21.1063 19.9375C23.7875 19.9375 23.98 18.5625 25.685 18.5625C27.3213 18.5625 27.61 19.91 30.25 19.9375L30.2363 17.215C28.0225 16.7613 28.0088 15.8125 25.6575 15.8125Z" fill="black"/>
<path d="M30.25 12.375C30.2775 6.875 24.365 4.125 16.5 4.125C8.64875 4.125 2.75 6.875 2.75 12.375V13.75H30.25V12.375ZM5.7475 11C6.88875 7.98875 11.8387 6.875 16.5 6.875C21.0513 6.875 24.6538 7.87875 26.3863 9.61125C26.7987 10.0375 27.1012 10.4913 27.28 11H5.7475Z" fill="black"/>
</g>
<defs>
<clipPath id="clip0_26_17">
<rect width="33" height="33" fill="white"/>
</clipPath>
</defs>
</svg>
