<svg width="33" height="33" viewBox="0 0 33 33" fill="none" xmlns="http://www.w3.org/2000/svg">
<g opacity="0.7" clip-path="url(#clip0_26_27)">
<path opacity="0.3" d="M7.57629 8.745L16.5 24.64L25.4238 8.75875C22.935 6.66875 19.7725 5.5 16.5 5.5C13.2275 5.5 10.065 6.66875 7.57629 8.745ZM12.375 11.6875C11.2338 11.6875 10.3125 10.7663 10.3125 9.625C10.3125 8.48375 11.2338 7.5625 12.375 7.5625C13.5163 7.5625 14.4375 8.48375 14.4375 9.625C14.4375 10.7663 13.5025 11.6875 12.375 11.6875ZM18.5625 17.875C18.5625 19.0162 17.6275 19.9375 16.5 19.9375C15.3588 19.9375 14.4375 19.0162 14.4375 17.875C14.4375 16.7338 15.3588 15.8125 16.5 15.8125C17.6413 15.8125 18.5625 16.7338 18.5625 17.875Z" fill="black"/>
<path d="M16.5 2.75C11.5913 2.75 7.19129 4.8675 4.13879 8.25L16.5 30.25L28.8613 8.25C25.8225 4.88125 21.4088 2.75 16.5 2.75ZM16.5 24.64L7.57629 8.745C10.065 6.66875 13.2275 5.5 16.5 5.5C19.7725 5.5 22.935 6.66875 25.4238 8.745L16.5 24.64ZM12.375 7.5625C11.2338 7.5625 10.3125 8.48375 10.3125 9.625C10.3125 10.7662 11.2338 11.6875 12.375 11.6875C13.5163 11.6875 14.4375 10.7662 14.4375 9.625C14.4375 8.48375 13.5025 7.5625 12.375 7.5625ZM14.4375 17.875C14.4375 19.0163 15.3588 19.9375 16.5 19.9375C17.6275 19.9375 18.5625 19.0163 18.5625 17.875C18.5625 16.7338 17.6275 15.8125 16.5 15.8125C15.3725 15.8125 14.4375 16.7338 14.4375 17.875Z" fill="black"/>
</g>
<defs>
<clipPath id="clip0_26_27">
<rect width="33" height="33" fill="white"/>
</clipPath>
</defs>
</svg>
